<?xml version="1.0" encoding="utf-8"?>
<!-- Generator: Adobe Illustrator 23.0.2, SVG Export Plug-In . SVG Version: 6.00 Build 0)  -->
<svg version="1.1" id="Layer_1" xmlns="http://www.w3.org/2000/svg" xmlns:xlink="http://www.w3.org/1999/xlink" x="0px" y="0px"
	 viewBox="0 0 192 192" style="enable-background:new 0 0 192 192;" xml:space="preserve">
<style type="text/css">
	.st0{fill:#FFFFFF;}
	.st1{fill:#F89D2D;}
</style>
<g>
	<path class="st0" d="M86.4,5.8c4.2-7.5,15-7.5,19.2,0l4.3,7.6c3,5.4,9.9,7.2,15.2,4.1l7.5-4.5c7.4-4.4,16.7,1,16.6,9.6l-0.1,8.7
		c-0.1,6.2,5,11.2,11.1,11.1l8.7-0.1c8.6-0.1,14,9.2,9.6,16.6l-4.5,7.5c-3.2,5.3-1.3,12.2,4.1,15.2l7.6,4.3c7.5,4.2,7.5,15,0,19.2
		l-7.6,4.3c-5.4,3-7.2,9.9-4.1,15.2l4.5,7.5c4.4,7.4-1,16.7-9.6,16.6l-8.7-0.1c-6.2-0.1-11.2,5-11.1,11.1l0.1,8.7
		c0.1,8.6-9.2,14-16.6,9.6l-7.5-4.5c-5.3-3.2-12.2-1.3-15.2,4.1l-4.3,7.6c-4.2,7.5-15,7.5-19.2,0l-4.3-7.6c-3-5.4-9.9-7.2-15.2-4.1
		l-7.5,4.5c-7.4,4.4-16.7-1-16.6-9.6l0.1-8.7c0.1-6.2-5-11.2-11.1-11.1l-8.7,0.1c-8.6,0.1-14-9.2-9.6-16.6l4.5-7.5
		c3.2-5.3,1.3-12.2-4.1-15.2l-7.6-4.3c-7.5-4.2-7.5-15,0-19.2l7.6-4.3c5.4-3,7.2-9.9,4.1-15.2L13.4,59c-4.4-7.4,1-16.7,9.6-16.6
		l8.7,0.1c6.2,0.1,11.2-5,11.1-11.1l-0.1-8.7C42.6,14,52,8.6,59.4,13l7.5,4.5c5.3,3.2,12.2,1.3,15.2-4.1L86.4,5.8z"/>
	<path class="st1" d="M51.6,67.3c0.2-1.6,0.7-3.1,1.3-4.3c0.7-1.2,1.5-2.3,2.5-3.1c1-0.8,2.2-1.5,3.5-1.9c1.3-0.4,2.7-0.6,4.2-0.6
		c1.5,0,2.9,0.2,4.2,0.7c1.3,0.4,2.3,1,3.2,1.8c0.9,0.8,1.6,1.7,2.1,2.8c0.5,1.1,0.7,2.3,0.7,3.6c0,1.1-0.1,2.1-0.4,2.9
		c-0.3,0.8-0.6,1.6-1.1,2.2c-0.5,0.6-1.1,1.2-1.8,1.6c-0.7,0.4-1.5,0.8-2.4,1.1c2.1,0.6,3.8,1.6,4.8,3c1.1,1.4,1.6,3.1,1.6,5.1
		c0,1.7-0.3,3.1-0.9,4.4s-1.5,2.4-2.5,3.3c-1.1,0.9-2.3,1.6-3.7,2.1c-1.4,0.5-2.9,0.7-4.5,0.7c-1.8,0-3.3-0.2-4.6-0.6
		c-1.3-0.4-2.4-1-3.4-1.8c-0.9-0.8-1.7-1.8-2.3-2.9c-0.6-1.1-1.2-2.4-1.6-3.8l2.2-0.9c0.6-0.3,1.2-0.3,1.7-0.2
		c0.5,0.1,0.9,0.4,1.2,0.9c0.3,0.5,0.5,1.1,0.9,1.7c0.3,0.6,0.7,1.1,1.2,1.6c0.5,0.5,1.1,0.9,1.9,1.2c0.8,0.3,1.7,0.5,2.8,0.5
		c1.1,0,2.1-0.2,2.9-0.5c0.8-0.4,1.5-0.8,2.1-1.4c0.6-0.6,1-1.2,1.2-1.9c0.3-0.7,0.4-1.4,0.4-2.1c0-0.9-0.1-1.7-0.3-2.4
		c-0.2-0.7-0.6-1.4-1.2-1.9c-0.6-0.5-1.4-0.9-2.5-1.2c-1.1-0.3-2.5-0.5-4.3-0.5v-3.7c1.5,0,2.7-0.2,3.7-0.4c1-0.3,1.8-0.7,2.4-1.2
		c0.6-0.5,1-1.1,1.3-1.8c0.3-0.7,0.4-1.4,0.4-2.3c0-0.9-0.1-1.7-0.4-2.3c-0.3-0.7-0.7-1.2-1.2-1.7c-0.5-0.5-1.1-0.8-1.7-1
		c-0.7-0.2-1.4-0.3-2.2-0.3c-0.8,0-1.5,0.1-2.2,0.3c-0.7,0.2-1.2,0.5-1.8,0.9c-0.5,0.4-0.9,0.9-1.3,1.4c-0.4,0.5-0.6,1.1-0.8,1.8
		c-0.2,0.7-0.5,1.1-0.9,1.3c-0.4,0.2-0.9,0.3-1.6,0.1L51.6,67.3z M103.1,75.1c0,3-0.3,5.6-1,7.8c-0.6,2.2-1.5,4-2.7,5.5
		c-1.1,1.5-2.5,2.5-4,3.2c-1.5,0.7-3.2,1.1-5,1.1s-3.4-0.4-5-1.1c-1.5-0.7-2.9-1.8-4-3.2c-1.1-1.5-2-3.3-2.6-5.5
		c-0.6-2.2-1-4.8-1-7.8c0-3,0.3-5.6,1-7.8c0.6-2.2,1.5-4.1,2.6-5.5c1.1-1.5,2.5-2.5,4-3.2c1.5-0.7,3.2-1.1,5-1.1s3.4,0.4,5,1.1
		c1.5,0.7,2.9,1.8,4,3.2c1.1,1.4,2,3.3,2.7,5.5C102.8,69.5,103.1,72.1,103.1,75.1z M97.8,75.1c0-2.6-0.2-4.7-0.6-6.4
		c-0.4-1.7-0.9-3.1-1.6-4.1c-0.7-1-1.4-1.8-2.3-2.2c-0.9-0.4-1.8-0.6-2.7-0.6c-1,0-1.9,0.2-2.8,0.6c-0.9,0.4-1.6,1.2-2.3,2.2
		c-0.7,1-1.2,2.4-1.6,4.1c-0.4,1.7-0.6,3.8-0.6,6.4c0,2.6,0.2,4.7,0.6,6.4c0.4,1.7,0.9,3.1,1.6,4.1c0.7,1,1.4,1.8,2.3,2.2
		c0.9,0.4,1.8,0.6,2.8,0.6c0.9,0,1.9-0.2,2.7-0.6s1.7-1.2,2.3-2.2c0.7-1,1.2-2.4,1.6-4.1C97.6,79.8,97.8,77.7,97.8,75.1z
		 M122.1,66.2c0,1.3-0.2,2.5-0.6,3.6c-0.4,1.1-1,2-1.7,2.7c-0.7,0.7-1.6,1.3-2.5,1.7c-0.9,0.4-1.9,0.6-3,0.6c-1.1,0-2.2-0.2-3.1-0.6
		c-0.9-0.4-1.8-1-2.5-1.7c-0.7-0.8-1.2-1.7-1.6-2.7s-0.6-2.2-0.6-3.6c0-1.4,0.2-2.6,0.6-3.6c0.4-1.1,0.9-2,1.6-2.7
		c0.7-0.8,1.5-1.3,2.5-1.7c1-0.4,2-0.6,3.1-0.6c1.1,0,2.2,0.2,3.1,0.6c1,0.4,1.8,1,2.5,1.7c0.7,0.7,1.3,1.6,1.7,2.7
		C121.9,63.6,122.1,64.8,122.1,66.2z M118.1,66.2c0-1-0.1-1.8-0.3-2.5c-0.2-0.7-0.5-1.2-0.8-1.7c-0.3-0.4-0.7-0.7-1.2-0.9
		c-0.5-0.2-1-0.3-1.5-0.3c-0.5,0-1,0.1-1.5,0.3c-0.5,0.2-0.9,0.5-1.2,0.9c-0.3,0.4-0.6,1-0.8,1.7c-0.2,0.7-0.3,1.5-0.3,2.5
		c0,1,0.1,1.8,0.3,2.4s0.5,1.2,0.8,1.6c0.3,0.4,0.7,0.7,1.2,0.9c0.5,0.2,1,0.3,1.5,0.3c0.5,0,1-0.1,1.5-0.3c0.5-0.2,0.9-0.5,1.2-0.9
		c0.4-0.4,0.6-1,0.8-1.6C118,68,118.1,67.1,118.1,66.2z M133.9,58.7c0.2-0.2,0.4-0.4,0.6-0.6c0.3-0.2,0.6-0.3,1.1-0.3h3.7
		l-25.5,33.8c-0.2,0.2-0.4,0.4-0.6,0.6c-0.3,0.1-0.6,0.2-0.9,0.2h-3.8L133.9,58.7z M141.4,84.3c0,1.3-0.2,2.5-0.6,3.6
		c-0.4,1.1-1,2-1.7,2.7s-1.6,1.3-2.5,1.7c-0.9,0.4-1.9,0.6-3,0.6c-1.1,0-2.2-0.2-3.1-0.6c-0.9-0.4-1.8-1-2.5-1.7
		c-0.7-0.7-1.2-1.6-1.6-2.7c-0.4-1.1-0.6-2.2-0.6-3.6c0-1.4,0.2-2.6,0.6-3.6c0.4-1.1,0.9-2,1.6-2.8c0.7-0.8,1.5-1.3,2.5-1.7
		c1-0.4,2-0.6,3.1-0.6c1.1,0,2.2,0.2,3.1,0.6c1,0.4,1.8,1,2.5,1.7c0.7,0.8,1.3,1.7,1.7,2.8C141.2,81.7,141.4,82.9,141.4,84.3z
		 M137.4,84.3c0-1-0.1-1.8-0.3-2.5c-0.2-0.7-0.5-1.2-0.8-1.7c-0.4-0.4-0.8-0.7-1.2-0.9c-0.5-0.2-1-0.3-1.5-0.3s-1,0.1-1.5,0.3
		c-0.5,0.2-0.9,0.5-1.2,0.9c-0.3,0.4-0.6,1-0.8,1.7c-0.2,0.7-0.3,1.5-0.3,2.5c0,1,0.1,1.8,0.3,2.4c0.2,0.7,0.5,1.2,0.8,1.6
		c0.4,0.4,0.8,0.7,1.2,0.9c0.5,0.2,1,0.3,1.5,0.3s1-0.1,1.5-0.3c0.5-0.2,0.9-0.5,1.2-0.9c0.4-0.4,0.6-1,0.8-1.6
		C137.3,86,137.4,85.2,137.4,84.3z M86.2,116.1c0,2.6-0.4,4.9-1.2,7.1c-0.8,2.2-2,4-3.5,5.6c-1.5,1.6-3.3,2.8-5.4,3.6
		c-2.1,0.9-4.5,1.3-7.1,1.3c-2.6,0-4.9-0.4-7.1-1.3c-2.1-0.9-3.9-2.1-5.4-3.6c-1.5-1.6-2.7-3.4-3.5-5.6c-0.8-2.2-1.2-4.5-1.2-7.1
		c0-2.6,0.4-4.9,1.2-7.1c0.8-2.2,2-4,3.5-5.6s3.3-2.8,5.4-3.7c2.1-0.9,4.5-1.3,7.1-1.3c2.6,0,4.9,0.4,7.1,1.3
		c2.1,0.9,3.9,2.1,5.4,3.7c1.5,1.6,2.7,3.4,3.5,5.6C85.8,111.2,86.2,113.6,86.2,116.1z M80.4,116.1c0-2-0.3-3.8-0.8-5.4
		c-0.5-1.6-1.3-2.9-2.3-4c-1-1.1-2.2-2-3.6-2.5c-1.4-0.6-3-0.9-4.8-0.9c-1.8,0-3.4,0.3-4.8,0.9c-1.4,0.6-2.6,1.4-3.6,2.5
		c-1,1.1-1.8,2.4-2.3,4c-0.5,1.6-0.8,3.4-0.8,5.4c0,2,0.3,3.8,0.8,5.4c0.5,1.6,1.3,2.9,2.3,4c1,1.1,2.2,1.9,3.6,2.5
		c1.4,0.6,3,0.9,4.8,0.9c1.8,0,3.4-0.3,4.8-0.9c1.4-0.6,2.6-1.4,3.6-2.5c1-1.1,1.8-2.4,2.3-4C80.2,119.9,80.4,118.1,80.4,116.1z
		 M98,103.4v11.1h13.5v4.5H98v14.4h-5.6V98.8h21.6v4.5H98z M125.1,103.4v11.1h13.5v4.5h-13.5v14.4h-5.6V98.8H141v4.5H125.1z"/>
</g>
</svg>
